<svg width="43" height="43" viewBox="0 0 43 43" fill="none" xmlns="http://www.w3.org/2000/svg">
<g clip-path="url(#clip0)">
<path d="M21.5237 19.5059C20.7321 19.5059 20.0903 20.1476 20.0903 20.9392C20.0902 21.5116 20.4266 22.0041 20.9116 22.2339V23.9763C20.9116 24.3143 21.1856 24.5883 21.5236 24.5883C21.8617 24.5883 22.1356 24.3144 22.1356 23.9763V22.2339C22.6207 22.0041 22.9571 21.5116 22.9571 20.9392C22.9571 20.1476 22.3153 19.5059 21.5237 19.5059Z" fill="#E43232"/>
<path d="M36.7967 9.33486C34.1621 8.29237 32.0711 6.37231 30.9087 3.92854C30.5926 3.26397 29.9093 2.83447 29.1678 2.83447H13.8321C13.0906 2.83447 12.4073 3.26388 12.0912 3.92854C10.9289 6.37231 8.83775 8.29237 6.20325 9.33486C5.46427 9.62721 4.98682 10.3317 4.98682 11.1294V14.8594C4.98682 19.7488 6.41262 24.5789 9.11011 28.8275C11.8338 33.1176 15.7806 36.703 20.5234 39.1958L20.6007 39.2365C20.8823 39.3845 21.1911 39.4585 21.5 39.4585C21.8087 39.4585 22.1176 39.3845 22.399 39.2366L22.4766 39.1958C27.2195 36.7029 31.1662 33.1176 33.89 28.8275C36.5874 24.5788 38.0132 19.7488 38.0132 14.8594V11.1294C38.0132 10.3316 37.5355 9.62721 36.7967 9.33486ZM36.7893 14.8594C36.7893 19.5161 35.4294 24.1193 32.8567 28.1716C30.2474 32.2814 26.461 35.719 21.9073 38.1125L21.8298 38.1532C21.6233 38.2619 21.3767 38.2618 21.1701 38.1532L21.0928 38.1126C16.539 35.7191 12.7526 32.2815 10.1432 28.1716C7.57051 24.1194 6.21064 19.5161 6.21064 14.8594V11.1294C6.21064 10.8371 6.38448 10.5793 6.65349 10.4729C9.57698 9.31613 11.9006 7.17865 13.1964 4.45428C13.3107 4.21383 13.5602 4.05846 13.832 4.05846H29.1679C29.4396 4.05846 29.6891 4.21383 29.8034 4.45428C31.0993 7.17865 33.423 9.31613 36.3464 10.473C36.6154 10.5794 36.7893 10.8372 36.7893 11.1295V14.8594Z" fill="#E43232"/>
<path d="M39.8651 20.667C39.5355 20.5924 39.2078 20.7993 39.1333 21.129C37.2696 29.3743 31.5932 36.525 23.5596 40.7475L21.6927 41.7288C21.5722 41.7921 21.4283 41.7921 21.3077 41.7288L19.4409 40.7475C11.3947 36.5184 5.71546 29.3553 3.85949 21.0951C3.7855 20.7654 3.45796 20.5581 3.12832 20.6322C2.7986 20.7063 2.59133 21.0337 2.6654 21.3634C4.60007 29.9744 10.5069 37.4345 18.8714 41.8308L20.7383 42.8121C20.9769 42.9374 21.2385 43.0001 21.5002 43.0001C21.7619 43.0001 22.0236 42.9374 22.2621 42.812L24.129 41.8307C32.4804 37.4413 38.3843 29.9941 40.3272 21.3987C40.4016 21.0691 40.1947 20.7415 39.8651 20.667Z" fill="#E43232"/>
<path d="M39.5669 7.00237C36.2992 6.65761 33.7297 4.36391 33.3185 1.42463C33.2048 0.612414 32.5069 0 31.6949 0H11.3048C10.493 0 9.79496 0.612414 9.68133 1.42463C9.26998 4.364 6.70056 6.65761 3.43289 7.00237C2.60489 7.08971 1.98047 7.78922 1.98047 8.62939V15.2007C1.98047 16.1556 2.02994 17.121 2.12753 18.0702C2.15994 18.3851 2.42567 18.6196 2.73557 18.6196C2.75648 18.6196 2.77765 18.6185 2.7989 18.6163C3.13509 18.5818 3.37965 18.2812 3.34505 17.945C3.25174 17.0372 3.20437 16.1139 3.20437 15.2007V8.62939C3.20437 8.42069 3.36117 8.24055 3.56131 8.21947C7.38898 7.81567 10.404 5.09122 10.8935 1.59419C10.9235 1.37961 11.0965 1.2239 11.3048 1.2239H31.6948C31.9032 1.2239 32.0763 1.37961 32.1062 1.59419C32.5955 5.09122 35.6107 7.81559 39.4383 8.21947C39.6385 8.24055 39.7953 8.42069 39.7953 8.62939V15.2007C39.7953 16.1043 39.7489 17.018 39.6575 17.9167C39.6234 18.2529 39.8683 18.5532 40.2044 18.5874C40.5405 18.6219 40.841 18.3767 40.8752 18.0405C40.9708 17.1009 41.0192 16.1455 41.0192 15.2007V8.62939C41.0193 7.78922 40.3949 7.08971 39.5669 7.00237Z" fill="#E43232"/>
<path d="M28.5096 15.2742H27.5034V12.3531C27.5034 9.05591 24.821 6.37354 21.5238 6.37354C18.2266 6.37354 15.5442 9.05591 15.5442 12.3531V15.2742H14.5381C13.4649 15.2742 12.5918 16.1473 12.5918 17.2205V25.9825C12.5918 27.0556 13.4649 27.9287 14.5381 27.9287H28.5096C29.5828 27.9287 30.4559 27.0556 30.4559 25.9825V17.2205C30.4559 16.1473 29.5828 15.2742 28.5096 15.2742ZM16.7682 12.3531C16.7682 9.73089 18.9015 7.59752 21.5239 7.59752C24.1462 7.59752 26.2796 9.73089 26.2796 12.3531V15.2743H16.7682V12.3531ZM29.232 25.9825C29.232 26.3807 28.9079 26.7048 28.5096 26.7048H14.5381C14.1397 26.7048 13.8157 26.3807 13.8157 25.9825V17.2205C13.8157 16.8222 14.1398 16.4981 14.5381 16.4981H28.5096C28.9079 16.4981 29.232 16.8221 29.232 17.2205V25.9825Z" fill="#E43232"/>
</g>
<defs>
<clipPath id="clip0">
<rect width="43" height="43" fill="white"/>
</clipPath>
</defs>
</svg>
